0
SECTION
2
HEADER
9
$ACADVER
1
AC1015
9
$ACADMAINTVER
70
6
9
$DWGCODEPAGE
3
ANSI_1252
9
$INSUNITS
70
4
9
$MEASUREMENT
70
1
9
$LUNITS
70
2
9
$LUPREC
70
4
9
$HANDSEED
5
FFFFFFF
9
$INSBASE
10
0
20
0
30
0
0
ENDSEC
0
SECTION
2
TABLES
0
TABLE
2
LTYPE
5
10B
100
AcDbSymbolTable
70
3
0
LTYPE
5
10C
100
AcDbSymbolTableRecord
100
AcDbLinetypeTableRecord
2
Continuous
70
0
3
Solid line
72
65
73
0
40
0
0
LTYPE
5
10D
100
AcDbSymbolTableRecord
100
AcDbLinetypeTableRecord
2
Dashed
70
0
3
Dashed __ __
72
65
73
2
40
18
49
12
74
0
49
-6
74
0
0
LTYPE
5
10E
100
AcDbSymbolTableRecord
100
AcDbLinetypeTableRecord
2
Center
70
0
3
Center ____ _
72
65
73
4
40
39
49
24
74
0
49
-6
74
0
49
3
74
0
49
-6
74
0
0
ENDTAB
0
TABLE
2
LAYER
5
10F
100
AcDbSymbolTable
70
9
0
LAYER
5
110
100
AcDbSymbolTableRecord
100
AcDbLayerTableRecord
2
0
70
0
62
7
420
14476525
6
Continuous
370
25
0
LAYER
5
111
100
AcDbSymbolTableRecord
100
AcDbLayerTableRecord
2
A-WALL
70
0
62
7
420
14608109
6
Continuous
370
35
0
LAYER
5
112
100
AcDbSymbolTableRecord
100
AcDbLayerTableRecord
2
A-OPENING
70
0
62
7
420
5884121
6
Continuous
370
20
0
LAYER
5
113
100
AcDbSymbolTableRecord
100
AcDbLayerTableRecord
2
A-FURNITURE
70
0
62
7
420
10794439
6
Continuous
370
18
0
LAYER
5
114
100
AcDbSymbolTableRecord
100
AcDbLayerTableRecord
2
A-DIMENSION
70
0
62
7
420
6669494
6
Continuous
370
15
0
LAYER
5
115
100
AcDbSymbolTableRecord
100
AcDbLayerTableRecord
2
A-ANNOTATION
70
0
62
7
420
12766165
6
Continuous
370
18
0
LAYER
5
116
100
AcDbSymbolTableRecord
100
AcDbLayerTableRecord
2
A-HATCH
70
0
62
7
420
6847889
6
Continuous
370
13
0
LAYER
5
117
100
AcDbSymbolTableRecord
100
AcDbLayerTableRecord
2
A-CENTER
70
0
62
7
420
13015654
6
Center
370
13
0
LAYER
5
118
100
AcDbSymbolTableRecord
100
AcDbLayerTableRecord
2
A-LANDSCAPE
70
0
62
7
420
7581336
6
Continuous
370
25
0
ENDTAB
0
TABLE
2
STYLE
5
119
100
AcDbSymbolTable
70
1
0
STYLE
5
11A
100
AcDbSymbolTableRecord
100
AcDbTextStyleTableRecord
2
STANDARD
70
0
40
0
41
1
50
0
71
0
42
2.5
3
txt
4

0
ENDTAB
0
TABLE
2
DIMSTYLE
5
11B
100
AcDbSymbolTable
100
AcDbDimStyleTable
70
1
0
DIMSTYLE
105
11C
100
AcDbSymbolTableRecord
100
AcDbDimStyleTableRecord
2
STANDARD
70
0
40
1
41
140
140
140
147
1
271
2
0
ENDTAB
0
TABLE
2
APPID
5
11D
100
AcDbSymbolTable
70
1
0
APPID
5
11E
100
AcDbSymbolTableRecord
100
AcDbRegAppTableRecord
2
ACAD
70
0
0
ENDTAB
0
TABLE
2
BLOCK_RECORD
5
11F
100
AcDbSymbolTable
70
10
0
BLOCK_RECORD
5
101
100
AcDbSymbolTableRecord
100
AcDbBlockTableRecord
2
*Model_Space
70
0
280
1
281
0
0
BLOCK_RECORD
5
102
100
AcDbSymbolTableRecord
100
AcDbBlockTableRecord
2
*Paper_Space
70
0
280
1
281
0
0
BLOCK_RECORD
5
103
100
AcDbSymbolTableRecord
100
AcDbBlockTableRecord
2
*D1
70
0
280
1
281
0
0
BLOCK_RECORD
5
104
100
AcDbSymbolTableRecord
100
AcDbBlockTableRecord
2
*D2
70
0
280
1
281
0
0
BLOCK_RECORD
5
105
100
AcDbSymbolTableRecord
100
AcDbBlockTableRecord
2
*D3
70
0
280
1
281
0
0
BLOCK_RECORD
5
106
100
AcDbSymbolTableRecord
100
AcDbBlockTableRecord
2
*D4
70
0
280
1
281
0
0
BLOCK_RECORD
5
107
100
AcDbSymbolTableRecord
100
AcDbBlockTableRecord
2
*D5
70
0
280
1
281
0
0
BLOCK_RECORD
5
108
100
AcDbSymbolTableRecord
100
AcDbBlockTableRecord
2
*D6
70
0
280
1
281
0
0
BLOCK_RECORD
5
109
100
AcDbSymbolTableRecord
100
AcDbBlockTableRecord
2
*D7
70
0
280
1
281
0
0
BLOCK_RECORD
5
10A
100
AcDbSymbolTableRecord
100
AcDbBlockTableRecord
2
*D8
70
0
280
1
281
0
0
ENDTAB
0
ENDSEC
0
SECTION
2
BLOCKS
0
BLOCK
5
120
330
101
100
AcDbEntity
8
0
100
AcDbBlockBegin
2
*Model_Space
70
0
10
0
20
0
30
0
3
*Model_Space
1

0
ENDBLK
5
121
330
101
100
AcDbEntity
8
0
100
AcDbBlockEnd
0
BLOCK
5
122
330
102
100
AcDbEntity
8
0
100
AcDbBlockBegin
2
*Paper_Space
70
0
10
0
20
0
30
0
3
*Paper_Space
1

0
ENDBLK
5
123
330
102
100
AcDbEntity
8
0
100
AcDbBlockEnd
0
BLOCK
5
124
330
103
100
AcDbEntity
8
0
100
AcDbBlockBegin
2
*D1
70
1
10
0
20
0
30
0
3
*D1
1

0
LINE
5
125
330
103
100
AcDbEntity
8
A-DIMENSION
100
AcDbLine
10
0
20
8542
30
0
11
0
21
9162
31
0
0
LINE
5
126
330
103
100
AcDbEntity
8
A-DIMENSION
100
AcDbLine
10
4420
20
8542
30
0
11
4420
21
9162
31
0
0
LINE
5
127
330
103
100
AcDbEntity
8
A-DIMENSION
100
AcDbLine
10
0
20
9050
30
0
11
4420
21
9050
31
0
0
LINE
5
128
330
103
100
AcDbEntity
8
A-DIMENSION
100
AcDbLine
10
0
20
9050
30
0
11
140
21
9089.2
31
0
0
LINE
5
129
330
103
100
AcDbEntity
8
A-DIMENSION
100
AcDbLine
10
0
20
9050
30
0
11
140
21
9010.8
31
0
0
LINE
5
12A
330
103
100
AcDbEntity
8
A-DIMENSION
100
AcDbLine
10
4420
20
9050
30
0
11
4280
21
9089.2
31
0
0
LINE
5
12B
330
103
100
AcDbEntity
8
A-DIMENSION
100
AcDbLine
10
4420
20
9050
30
0
11
4280
21
9010.8
31
0
0
TEXT
5
12C
330
103
100
AcDbEntity
8
A-DIMENSION
100
AcDbText
10
2210
20
9120
30
0
40
140
1
4420
50
0
41
1
7
STANDARD
72
1
11
2210
21
9120
31
0
210
0
220
0
230
1
100
AcDbText
73
0
0
ENDBLK
5
12D
330
103
100
AcDbEntity
8
0
100
AcDbBlockEnd
0
BLOCK
5
12E
330
104
100
AcDbEntity
8
0
100
AcDbBlockBegin
2
*D2
70
1
10
0
20
0
30
0
3
*D2
1

0
LINE
5
12F
330
104
100
AcDbEntity
8
A-DIMENSION
100
AcDbLine
10
4420
20
8542
30
0
11
4420
21
9162
31
0
0
LINE
5
130
330
104
100
AcDbEntity
8
A-DIMENSION
100
AcDbLine
10
7600
20
8542
30
0
11
7600
21
9162
31
0
0
LINE
5
131
330
104
100
AcDbEntity
8
A-DIMENSION
100
AcDbLine
10
4420
20
9050
30
0
11
7600
21
9050
31
0
0
LINE
5
132
330
104
100
AcDbEntity
8
A-DIMENSION
100
AcDbLine
10
4420
20
9050
30
0
11
4560
21
9089.2
31
0
0
LINE
5
133
330
104
100
AcDbEntity
8
A-DIMENSION
100
AcDbLine
10
4420
20
9050
30
0
11
4560
21
9010.8
31
0
0
LINE
5
134
330
104
100
AcDbEntity
8
A-DIMENSION
100
AcDbLine
10
7600
20
9050
30
0
11
7460
21
9089.2
31
0
0
LINE
5
135
330
104
100
AcDbEntity
8
A-DIMENSION
100
AcDbLine
10
7600
20
9050
30
0
11
7460
21
9010.8
31
0
0
TEXT
5
136
330
104
100
AcDbEntity
8
A-DIMENSION
100
AcDbText
10
6010
20
9120
30
0
40
140
1
3180
50
0
41
1
7
STANDARD
72
1
11
6010
21
9120
31
0
210
0
220
0
230
1
100
AcDbText
73
0
0
ENDBLK
5
137
330
104
100
AcDbEntity
8
0
100
AcDbBlockEnd
0
BLOCK
5
138
330
105
100
AcDbEntity
8
0
100
AcDbBlockBegin
2
*D3
70
1
10
0
20
0
30
0
3
*D3
1

0
LINE
5
139
330
105
100
AcDbEntity
8
A-DIMENSION
100
AcDbLine
10
7600
20
8542
30
0
11
7600
21
9162
31
0
0
LINE
5
13A
330
105
100
AcDbEntity
8
A-DIMENSION
100
AcDbLine
10
12000
20
8542
30
0
11
12000
21
9162
31
0
0
LINE
5
13B
330
105
100
AcDbEntity
8
A-DIMENSION
100
AcDbLine
10
7600
20
9050
30
0
11
12000
21
9050
31
0
0
LINE
5
13C
330
105
100
AcDbEntity
8
A-DIMENSION
100
AcDbLine
10
7600
20
9050
30
0
11
7740
21
9089.2
31
0
0
LINE
5
13D
330
105
100
AcDbEntity
8
A-DIMENSION
100
AcDbLine
10
7600
20
9050
30
0
11
7740
21
9010.8
31
0
0
LINE
5
13E
330
105
100
AcDbEntity
8
A-DIMENSION
100
AcDbLine
10
12000
20
9050
30
0
11
11860
21
9089.2
31
0
0
LINE
5
13F
330
105
100
AcDbEntity
8
A-DIMENSION
100
AcDbLine
10
12000
20
9050
30
0
11
11860
21
9010.8
31
0
0
TEXT
5
140
330
105
100
AcDbEntity
8
A-DIMENSION
100
AcDbText
10
9800
20
9120
30
0
40
140
1
4400
50
0
41
1
7
STANDARD
72
1
11
9800
21
9120
31
0
210
0
220
0
230
1
100
AcDbText
73
0
0
ENDBLK
5
141
330
105
100
AcDbEntity
8
0
100
AcDbBlockEnd
0
BLOCK
5
142
330
106
100
AcDbEntity
8
0
100
AcDbBlockBegin
2
*D4
70
1
10
0
20
0
30
0
3
*D4
1

0
LINE
5
143
330
106
100
AcDbEntity
8
A-DIMENSION
100
AcDbLine
10
0
20
8548
30
0
11
0
21
9738
31
0
0
LINE
5
144
330
106
100
AcDbEntity
8
A-DIMENSION
100
AcDbLine
10
12000
20
8548
30
0
11
12000
21
9738
31
0
0
LINE
5
145
330
106
100
AcDbEntity
8
A-DIMENSION
100
AcDbLine
10
0
20
9610
30
0
11
12000
21
9610
31
0
0
LINE
5
146
330
106
100
AcDbEntity
8
A-DIMENSION
100
AcDbLine
10
0
20
9610
30
0
11
160
21
9654.8
31
0
0
LINE
5
147
330
106
100
AcDbEntity
8
A-DIMENSION
100
AcDbLine
10
0
20
9610
30
0
11
160
21
9565.2
31
0
0
LINE
5
148
330
106
100
AcDbEntity
8
A-DIMENSION
100
AcDbLine
10
12000
20
9610
30
0
11
11840
21
9654.8
31
0
0
LINE
5
149
330
106
100
AcDbEntity
8
A-DIMENSION
100
AcDbLine
10
12000
20
9610
30
0
11
11840
21
9565.2
31
0
0
TEXT
5
14A
330
106
100
AcDbEntity
8
A-DIMENSION
100
AcDbText
10
6000
20
9690
30
0
40
160
1
12000
50
0
41
1
7
STANDARD
72
1
11
6000
21
9690
31
0
210
0
220
0
230
1
100
AcDbText
73
0
0
ENDBLK
5
14B
330
106
100
AcDbEntity
8
0
100
AcDbBlockEnd
0
BLOCK
5
14C
330
107
100
AcDbEntity
8
0
100
AcDbBlockBegin
2
*D5
70
1
10
0
20
0
30
0
3
*D5
1

0
LINE
5
14D
330
107
100
AcDbEntity
8
A-DIMENSION
100
AcDbLine
10
0
20
-49.5
30
0
11
0
21
-1322
31
0
0
LINE
5
14E
330
107
100
AcDbEntity
8
A-DIMENSION
100
AcDbLine
10
12000
20
-49.5
30
0
11
12000
21
-1322
31
0
0
LINE
5
14F
330
107
100
AcDbEntity
8
A-DIMENSION
100
AcDbLine
10
0
20
-1190
30
0
11
12000
21
-1190
31
0
0
LINE
5
150
330
107
100
AcDbEntity
8
A-DIMENSION
100
AcDbLine
10
0
20
-1190
30
0
11
165
21
-1143.8
31
0
0
LINE
5
151
330
107
100
AcDbEntity
8
A-DIMENSION
100
AcDbLine
10
0
20
-1190
30
0
11
165
21
-1236.2
31
0
0
LINE
5
152
330
107
100
AcDbEntity
8
A-DIMENSION
100
AcDbLine
10
12000
20
-1190
30
0
11
11835
21
-1143.8
31
0
0
LINE
5
153
330
107
100
AcDbEntity
8
A-DIMENSION
100
AcDbLine
10
12000
20
-1190
30
0
11
11835
21
-1236.2
31
0
0
TEXT
5
154
330
107
100
AcDbEntity
8
A-DIMENSION
100
AcDbText
10
6000
20
-1107.5
30
0
40
165
1
12000
50
0
41
1
7
STANDARD
72
1
11
6000
21
-1107.5
31
0
210
0
220
0
230
1
100
AcDbText
73
0
0
ENDBLK
5
155
330
107
100
AcDbEntity
8
0
100
AcDbBlockEnd
0
BLOCK
5
156
330
108
100
AcDbEntity
8
0
100
AcDbBlockBegin
2
*D6
70
1
10
0
20
0
30
0
3
*D6
1

0
LINE
5
157
330
108
100
AcDbEntity
8
A-DIMENSION
100
AcDbLine
10
12048
20
0
30
0
11
12848
21
0
31
0
0
LINE
5
158
330
108
100
AcDbEntity
8
A-DIMENSION
100
AcDbLine
10
12048
20
8500
30
0
11
12848
21
8500
31
0
0
LINE
5
159
330
108
100
AcDbEntity
8
A-DIMENSION
100
AcDbLine
10
12720
20
0
30
0
11
12720
21
8500
31
0
0
LINE
5
15A
330
108
100
AcDbEntity
8
A-DIMENSION
100
AcDbLine
10
12720
20
0
30
0
11
12675.2
21
160
31
0
0
LINE
5
15B
330
108
100
AcDbEntity
8
A-DIMENSION
100
AcDbLine
10
12720
20
0
30
0
11
12764.8
21
160
31
0
0
LINE
5
15C
330
108
100
AcDbEntity
8
A-DIMENSION
100
AcDbLine
10
12720
20
8500
30
0
11
12675.2
21
8340
31
0
0
LINE
5
15D
330
108
100
AcDbEntity
8
A-DIMENSION
100
AcDbLine
10
12720
20
8500
30
0
11
12764.8
21
8340
31
0
0
TEXT
5
15E
330
108
100
AcDbEntity
8
A-DIMENSION
100
AcDbText
10
12640
20
4250
30
0
40
160
1
8500
50
90
41
1
7
STANDARD
72
1
11
12640
21
4250
31
0
210
0
220
0
230
1
100
AcDbText
73
0
0
ENDBLK
5
15F
330
108
100
AcDbEntity
8
0
100
AcDbBlockEnd
0
BLOCK
5
160
330
109
100
AcDbEntity
8
0
100
AcDbBlockBegin
2
*D7
70
1
10
0
20
0
30
0
3
*D7
1

0
LINE
5
161
330
109
100
AcDbEntity
8
A-DIMENSION
100
AcDbLine
10
42
20
0
30
0
11
732
21
0
31
0
0
LINE
5
162
330
109
100
AcDbEntity
8
A-DIMENSION
100
AcDbLine
10
42
20
4180
30
0
11
732
21
4180
31
0
0
LINE
5
163
330
109
100
AcDbEntity
8
A-DIMENSION
100
AcDbLine
10
620
20
0
30
0
11
620
21
4180
31
0
0
LINE
5
164
330
109
100
AcDbEntity
8
A-DIMENSION
100
AcDbLine
10
620
20
0
30
0
11
580.8
21
140
31
0
0
LINE
5
165
330
109
100
AcDbEntity
8
A-DIMENSION
100
AcDbLine
10
620
20
0
30
0
11
659.2
21
140
31
0
0
LINE
5
166
330
109
100
AcDbEntity
8
A-DIMENSION
100
AcDbLine
10
620
20
4180
30
0
11
580.8
21
4040
31
0
0
LINE
5
167
330
109
100
AcDbEntity
8
A-DIMENSION
100
AcDbLine
10
620
20
4180
30
0
11
659.2
21
4040
31
0
0
TEXT
5
168
330
109
100
AcDbEntity
8
A-DIMENSION
100
AcDbText
10
550
20
2090
30
0
40
140
1
4180
50
90
41
1
7
STANDARD
72
1
11
550
21
2090
31
0
210
0
220
0
230
1
100
AcDbText
73
0
0
ENDBLK
5
169
330
109
100
AcDbEntity
8
0
100
AcDbBlockEnd
0
BLOCK
5
16A
330
10A
100
AcDbEntity
8
0
100
AcDbBlockBegin
2
*D8
70
1
10
0
20
0
30
0
3
*D8
1

0
LINE
5
16B
330
10A
100
AcDbEntity
8
A-DIMENSION
100
AcDbLine
10
42
20
4180
30
0
11
732
21
4180
31
0
0
LINE
5
16C
330
10A
100
AcDbEntity
8
A-DIMENSION
100
AcDbLine
10
42
20
8500
30
0
11
732
21
8500
31
0
0
LINE
5
16D
330
10A
100
AcDbEntity
8
A-DIMENSION
100
AcDbLine
10
620
20
4180
30
0
11
620
21
8500
31
0
0
LINE
5
16E
330
10A
100
AcDbEntity
8
A-DIMENSION
100
AcDbLine
10
620
20
4180
30
0
11
580.8
21
4320
31
0
0
LINE
5
16F
330
10A
100
AcDbEntity
8
A-DIMENSION
100
AcDbLine
10
620
20
4180
30
0
11
659.2
21
4320
31
0
0
LINE
5
170
330
10A
100
AcDbEntity
8
A-DIMENSION
100
AcDbLine
10
620
20
8500
30
0
11
580.8
21
8360
31
0
0
LINE
5
171
330
10A
100
AcDbEntity
8
A-DIMENSION
100
AcDbLine
10
620
20
8500
30
0
11
659.2
21
8360
31
0
0
TEXT
5
172
330
10A
100
AcDbEntity
8
A-DIMENSION
100
AcDbText
10
550
20
6340
30
0
40
140
1
4320
50
90
41
1
7
STANDARD
72
1
11
550
21
6340
31
0
210
0
220
0
230
1
100
AcDbText
73
0
0
ENDBLK
5
173
330
10A
100
AcDbEntity
8
0
100
AcDbBlockEnd
0
ENDSEC
0
SECTION
2
ENTITIES
0
LWPOLYLINE
5
174
330
101
100
AcDbEntity
8
A-WALL
100
AcDbPolyline
90
4
70
1
38
0
210
0
220
0
230
1
10
0
20
0
10
1900
20
0
10
1900
20
180
10
0
20
180
0
HATCH
5
175
330
101
100
AcDbEntity
8
A-HATCH
100
AcDbHatch
10
0
20
0
30
0
210
0
220
0
230
1
2
ANSI31
70
0
71
0
91
1
92
2
72
0
73
1
93
4
10
0
20
0
10
1900
20
0
10
1900
20
180
10
0
20
180
97
0
75
0
76
1
52
45
41
1
77
0
78
1
53
45
43
0
44
0
45
-77.7817459305
46
77.7817459305
79
0
98
0
0
LWPOLYLINE
5
176
330
101
100
AcDbEntity
8
A-WALL
100
AcDbPolyline
90
4
70
1
38
0
210
0
220
0
230
1
10
2950
20
0
10
7350
20
0
10
7350
20
180
10
2950
20
180
0
HATCH
5
177
330
101
100
AcDbEntity
8
A-HATCH
100
AcDbHatch
10
0
20
0
30
0
210
0
220
0
230
1
2
ANSI31
70
0
71
0
91
1
92
2
72
0
73
1
93
4
10
2950
20
0
10
7350
20
0
10
7350
20
180
10
2950
20
180
97
0
75
0
76
1
52
45
41
1
77
0
78
1
53
45
43
0
44
0
45
-77.7817459305
46
77.7817459305
79
0
98
0
0
LWPOLYLINE
5
178
330
101
100
AcDbEntity
8
A-WALL
100
AcDbPolyline
90
4
70
1
38
0
210
0
220
0
230
1
10
10100
20
0
10
12000
20
0
10
12000
20
180
10
10100
20
180
0
HATCH
5
179
330
101
100
AcDbEntity
8
A-HATCH
100
AcDbHatch
10
0
20
0
30
0
210
0
220
0
230
1
2
ANSI31
70
0
71
0
91
1
92
2
72
0
73
1
93
4
10
10100
20
0
10
12000
20
0
10
12000
20
180
10
10100
20
180
97
0
75
0
76
1
52
45
41
1
77
0
78
1
53
45
43
0
44
0
45
-77.7817459305
46
77.7817459305
79
0
98
0
0
LWPOLYLINE
5
17A
330
101
100
AcDbEntity
8
A-WALL
100
AcDbPolyline
90
4
70
1
38
0
210
0
220
0
230
1
10
0
20
8320
10
700
20
8320
10
700
20
8500
10
0
20
8500
0
HATCH
5
17B
330
101
100
AcDbEntity
8
A-HATCH
100
AcDbHatch
10
0
20
0
30
0
210
0
220
0
230
1
2
ANSI31
70
0
71
0
91
1
92
2
72
0
73
1
93
4
10
0
20
8320
10
700
20
8320
10
700
20
8500
10
0
20
8500
97
0
75
0
76
1
52
45
41
1
77
0
78
1
53
45
43
0
44
0
45
-77.7817459305
46
77.7817459305
79
0
98
0
0
LWPOLYLINE
5
17C
330
101
100
AcDbEntity
8
A-WALL
100
AcDbPolyline
90
4
70
1
38
0
210
0
220
0
230
1
10
3520
20
8320
10
4420
20
8320
10
4420
20
8500
10
3520
20
8500
0
HATCH
5
17D
330
101
100
AcDbEntity
8
A-HATCH
100
AcDbHatch
10
0
20
0
30
0
210
0
220
0
230
1
2
ANSI31
70
0
71
0
91
1
92
2
72
0
73
1
93
4
10
3520
20
8320
10
4420
20
8320
10
4420
20
8500
10
3520
20
8500
97
0
75
0
76
1
52
45
41
1
77
0
78
1
53
45
43
0
44
0
45
-77.7817459305
46
77.7817459305
79
0
98
0
0
LWPOLYLINE
5
17E
330
101
100
AcDbEntity
8
A-WALL
100
AcDbPolyline
90
4
70
1
38
0
210
0
220
0
230
1
10
7600
20
8320
10
8350
20
8320
10
8350
20
8500
10
7600
20
8500
0
HATCH
5
17F
330
101
100
AcDbEntity
8
A-HATCH
100
AcDbHatch
10
0
20
0
30
0
210
0
220
0
230
1
2
ANSI31
70
0
71
0
91
1
92
2
72
0
73
1
93
4
10
7600
20
8320
10
8350
20
8320
10
8350
20
8500
10
7600
20
8500
97
0
75
0
76
1
52
45
41
1
77
0
78
1
53
45
43
0
44
0
45
-77.7817459305
46
77.7817459305
79
0
98
0
0
LWPOLYLINE
5
180
330
101
100
AcDbEntity
8
A-WALL
100
AcDbPolyline
90
4
70
1
38
0
210
0
220
0
230
1
10
11100
20
8320
10
12000
20
8320
10
12000
20
8500
10
11100
20
8500
0
HATCH
5
181
330
101
100
AcDbEntity
8
A-HATCH
100
AcDbHatch
10
0
20
0
30
0
210
0
220
0
230
1
2
ANSI31
70
0
71
0
91
1
92
2
72
0
73
1
93
4
10
11100
20
8320
10
12000
20
8320
10
12000
20
8500
10
11100
20
8500
97
0
75
0
76
1
52
45
41
1
77
0
78
1
53
45
43
0
44
0
45
-77.7817459305
46
77.7817459305
79
0
98
0
0
LWPOLYLINE
5
182
330
101
100
AcDbEntity
8
A-WALL
100
AcDbPolyline
90
4
70
1
38
0
210
0
220
0
230
1
10
0
20
0
10
180
20
0
10
180
20
1050
10
0
20
1050
0
HATCH
5
183
330
101
100
AcDbEntity
8
A-HATCH
100
AcDbHatch
10
0
20
0
30
0
210
0
220
0
230
1
2
ANSI31
70
0
71
0
91
1
92
2
72
0
73
1
93
4
10
0
20
0
10
180
20
0
10
180
20
1050
10
0
20
1050
97
0
75
0
76
1
52
45
41
1
77
0
78
1
53
45
43
0
44
0
45
-77.7817459305
46
77.7817459305
79
0
98
0
0
LWPOLYLINE
5
184
330
101
100
AcDbEntity
8
A-WALL
100
AcDbPolyline
90
4
70
1
38
0
210
0
220
0
230
1
10
0
20
3450
10
180
20
3450
10
180
20
5400
10
0
20
5400
0
HATCH
5
185
330
101
100
AcDbEntity
8
A-HATCH
100
AcDbHatch
10
0
20
0
30
0
210
0
220
0
230
1
2
ANSI31
70
0
71
0
91
1
92
2
72
0
73
1
93
4
10
0
20
3450
10
180
20
3450
10
180
20
5400
10
0
20
5400
97
0
75
0
76
1
52
45
41
1
77
0
78
1
53
45
43
0
44
0
45
-77.7817459305
46
77.7817459305
79
0
98
0
0
LWPOLYLINE
5
186
330
101
100
AcDbEntity
8
A-WALL
100
AcDbPolyline
90
4
70
1
38
0
210
0
220
0
230
1
10
0
20
7700
10
180
20
7700
10
180
20
8500
10
0
20
8500
0
HATCH
5
187
330
101
100
AcDbEntity
8
A-HATCH
100
AcDbHatch
10
0
20
0
30
0
210
0
220
0
230
1
2
ANSI31
70
0
71
0
91
1
92
2
72
0
73
1
93
4
10
0
20
7700
10
180
20
7700
10
180
20
8500
10
0
20
8500
97
0
75
0
76
1
52
45
41
1
77
0
78
1
53
45
43
0
44
0
45
-77.7817459305
46
77.7817459305
79
0
98
0
0
LWPOLYLINE
5
188
330
101
100
AcDbEntity
8
A-WALL
100
AcDbPolyline
90
4
70
1
38
0
210
0
220
0
230
1
10
11820
20
0
10
12000
20
0
10
12000
20
650
10
11820
20
650
0
HATCH
5
189
330
101
100
AcDbEntity
8
A-HATCH
100
AcDbHatch
10
0
20
0
30
0
210
0
220
0
230
1
2
ANSI31
70
0
71
0
91
1
92
2
72
0
73
1
93
4
10
11820
20
0
10
12000
20
0
10
12000
20
650
10
11820
20
650
97
0
75
0
76
1
52
45
41
1
77
0
78
1
53
45
43
0
44
0
45
-77.7817459305
46
77.7817459305
79
0
98
0
0
LWPOLYLINE
5
18A
330
101
100
AcDbEntity
8
A-WALL
100
AcDbPolyline
90
4
70
1
38
0
210
0
220
0
230
1
10
11820
20
2850
10
12000
20
2850
10
12000
20
4850
10
11820
20
4850
0
HATCH
5
18B
330
101
100
AcDbEntity
8
A-HATCH
100
AcDbHatch
10
0
20
0
30
0
210
0
220
0
230
1
2
ANSI31
70
0
71
0
91
1
92
2
72
0
73
1
93
4
10
11820
20
2850
10
12000
20
2850
10
12000
20
4850
10
11820
20
4850
97
0
75
0
76
1
52
45
41
1
77
0
78
1
53
45
43
0
44
0
45
-77.7817459305
46
77.7817459305
79
0
98
0
0
LWPOLYLINE
5
18C
330
101
100
AcDbEntity
8
A-WALL
100
AcDbPolyline
90
4
70
1
38
0
210
0
220
0
230
1
10
11820
20
7350
10
12000
20
7350
10
12000
20
8500
10
11820
20
8500
0
HATCH
5
18D
330
101
100
AcDbEntity
8
A-HATCH
100
AcDbHatch
10
0
20
0
30
0
210
0
220
0
230
1
2
ANSI31
70
0
71
0
91
1
92
2
72
0
73
1
93
4
10
11820
20
7350
10
12000
20
7350
10
12000
20
8500
10
11820
20
8500
97
0
75
0
76
1
52
45
41
1
77
0
78
1
53
45
43
0
44
0
45
-77.7817459305
46
77.7817459305
79
0
98
0
0
LWPOLYLINE
5
18E
330
101
100
AcDbEntity
8
A-WALL
100
AcDbPolyline
90
4
70
1
38
0
210
0
220
0
230
1
10
7420
20
180
10
7600
20
180
10
7600
20
3360
10
7420
20
3360
0
HATCH
5
18F
330
101
100
AcDbEntity
8
A-HATCH
100
AcDbHatch
10
0
20
0
30
0
210
0
220
0
230
1
2
ANSI31
70
0
71
0
91
1
92
2
72
0
73
1
93
4
10
7420
20
180
10
7600
20
180
10
7600
20
3360
10
7420
20
3360
97
0
75
0
76
1
52
45
41
1
77
0
78
1
53
45
43
0
44
0
45
-77.7817459305
46
77.7817459305
79
0
98
0
0
LWPOLYLINE
5
190
330
101
100
AcDbEntity
8
A-WALL
100
AcDbPolyline
90
4
70
1
38
0
210
0
220
0
230
1
10
7420
20
4360
10
7600
20
4360
10
7600
20
8320
10
7420
20
8320
0
HATCH
5
191
330
101
100
AcDbEntity
8
A-HATCH
100
AcDbHatch
10
0
20
0
30
0
210
0
220
0
230
1
2
ANSI31
70
0
71
0
91
1
92
2
72
0
73
1
93
4
10
7420
20
4360
10
7600
20
4360
10
7600
20
8320
10
7420
20
8320
97
0
75
0
76
1
52
45
41
1
77
0
78
1
53
45
43
0
44
0
45
-77.7817459305
46
77.7817459305
79
0
98
0
0
LWPOLYLINE
5
192
330
101
100
AcDbEntity
8
A-WALL
100
AcDbPolyline
90
4
70
1
38
0
210
0
220
0
230
1
10
7600
20
4090
10
9370
20
4090
10
9370
20
4270
10
7600
20
4270
0
HATCH
5
193
330
101
100
AcDbEntity
8
A-HATCH
100
AcDbHatch
10
0
20
0
30
0
210
0
220
0
230
1
2
ANSI31
70
0
71
0
91
1
92
2
72
0
73
1
93
4
10
7600
20
4090
10
9370
20
4090
10
9370
20
4270
10
7600
20
4270
97
0
75
0
76
1
52
45
41
1
77
0
78
1
53
45
43
0
44
0
45
-77.7817459305
46
77.7817459305
79
0
98
0
0
LWPOLYLINE
5
194
330
101
100
AcDbEntity
8
A-WALL
100
AcDbPolyline
90
4
70
1
38
0
210
0
220
0
230
1
10
10370
20
4090
10
11820
20
4090
10
11820
20
4270
10
10370
20
4270
0
HATCH
5
195
330
101
100
AcDbEntity
8
A-HATCH
100
AcDbHatch
10
0
20
0
30
0
210
0
220
0
230
1
2
ANSI31
70
0
71
0
91
1
92
2
72
0
73
1
93
4
10
10370
20
4090
10
11820
20
4090
10
11820
20
4270
10
10370
20
4270
97
0
75
0
76
1
52
45
41
1
77
0
78
1
53
45
43
0
44
0
45
-77.7817459305
46
77.7817459305
79
0
98
0
0
LWPOLYLINE
5
196
330
101
100
AcDbEntity
8
A-WALL
100
AcDbPolyline
90
4
70
1
38
0
210
0
220
0
230
1
10
4420
20
4800
10
4600
20
4800
10
4600
20
8320
10
4420
20
8320
0
HATCH
5
197
330
101
100
AcDbEntity
8
A-HATCH
100
AcDbHatch
10
0
20
0
30
0
210
0
220
0
230
1
2
ANSI31
70
0
71
0
91
1
92
2
72
0
73
1
93
4
10
4420
20
4800
10
4600
20
4800
10
4600
20
8320
10
4420
20
8320
97
0
75
0
76
1
52
45
41
1
77
0
78
1
53
45
43
0
44
0
45
-77.7817459305
46
77.7817459305
79
0
98
0
0
LWPOLYLINE
5
198
330
101
100
AcDbEntity
8
A-WALL
100
AcDbPolyline
90
4
70
1
38
0
210
0
220
0
230
1
10
4600
20
4620
10
5120
20
4620
10
5120
20
4800
10
4600
20
4800
0
HATCH
5
199
330
101
100
AcDbEntity
8
A-HATCH
100
AcDbHatch
10
0
20
0
30
0
210
0
220
0
230
1
2
ANSI31
70
0
71
0
91
1
92
2
72
0
73
1
93
4
10
4600
20
4620
10
5120
20
4620
10
5120
20
4800
10
4600
20
4800
97
0
75
0
76
1
52
45
41
1
77
0
78
1
53
45
43
0
44
0
45
-77.7817459305
46
77.7817459305
79
0
98
0
0
LWPOLYLINE
5
19A
330
101
100
AcDbEntity
8
A-WALL
100
AcDbPolyline
90
4
70
1
38
0
210
0
220
0
230
1
10
6920
20
4620
10
7420
20
4620
10
7420
20
4800
10
6920
20
4800
0
HATCH
5
19B
330
101
100
AcDbEntity
8
A-HATCH
100
AcDbHatch
10
0
20
0
30
0
210
0
220
0
230
1
2
ANSI31
70
0
71
0
91
1
92
2
72
0
73
1
93
4
10
6920
20
4620
10
7420
20
4620
10
7420
20
4800
10
6920
20
4800
97
0
75
0
76
1
52
45
41
1
77
0
78
1
53
45
43
0
44
0
45
-77.7817459305
46
77.7817459305
79
0
98
0
0
LWPOLYLINE
5
19C
330
101
100
AcDbEntity
8
A-WALL
100
AcDbPolyline
90
4
70
1
38
0
210
0
220
0
230
1
10
10020
20
6370
10
10200
20
6370
10
10200
20
8320
10
10020
20
8320
0
HATCH
5
19D
330
101
100
AcDbEntity
8
A-HATCH
100
AcDbHatch
10
0
20
0
30
0
210
0
220
0
230
1
2
ANSI31
70
0
71
0
91
1
92
2
72
0
73
1
93
4
10
10020
20
6370
10
10200
20
6370
10
10200
20
8320
10
10020
20
8320
97
0
75
0
76
1
52
45
41
1
77
0
78
1
53
45
43
0
44
0
45
-77.7817459305
46
77.7817459305
79
0
98
0
0
LWPOLYLINE
5
19E
330
101
100
AcDbEntity
8
A-WALL
100
AcDbPolyline
90
4
70
1
38
0
210
0
220
0
230
1
10
10200
20
6190
10
10940
20
6190
10
10940
20
6370
10
10200
20
6370
0
HATCH
5
19F
330
101
100
AcDbEntity
8
A-HATCH
100
AcDbHatch
10
0
20
0
30
0
210
0
220
0
230
1
2
ANSI31
70
0
71
0
91
1
92
2
72
0
73
1
93
4
10
10200
20
6190
10
10940
20
6190
10
10940
20
6370
10
10200
20
6370
97
0
75
0
76
1
52
45
41
1
77
0
78
1
53
45
43
0
44
0
45
-77.7817459305
46
77.7817459305
79
0
98
0
0
LWPOLYLINE
5
1A0
330
101
100
AcDbEntity
8
A-WALL
100
AcDbPolyline
90
4
70
1
38
0
210
0
220
0
230
1
10
11700
20
6190
10
11820
20
6190
10
11820
20
6370
10
11700
20
6370
0
HATCH
5
1A1
330
101
100
AcDbEntity
8
A-HATCH
100
AcDbHatch
10
0
20
0
30
0
210
0
220
0
230
1
2
ANSI31
70
0
71
0
91
1
92
2
72
0
73
1
93
4
10
11700
20
6190
10
11820
20
6190
10
11820
20
6370
10
11700
20
6370
97
0
75
0
76
1
52
45
41
1
77
0
78
1
53
45
43
0
44
0
45
-77.7817459305
46
77.7817459305
79
0
98
0
0
LINE
5
1A2
330
101
100
AcDbEntity
8
A-OPENING
100
AcDbLine
10
700
20
8355
30
0
11
3520
21
8355
31
0
0
LINE
5
1A3
330
101
100
AcDbEntity
8
A-OPENING
100
AcDbLine
10
700
20
8410
30
0
11
3520
21
8410
31
0
0
LINE
5
1A4
330
101
100
AcDbEntity
8
A-OPENING
100
AcDbLine
10
700
20
8465
30
0
11
3520
21
8465
31
0
0
LINE
5
1A5
330
101
100
AcDbEntity
8
A-OPENING
100
AcDbLine
10
700
20
8320
30
0
11
700
21
8500
31
0
0
LINE
5
1A6
330
101
100
AcDbEntity
8
A-OPENING
100
AcDbLine
10
3520
20
8320
30
0
11
3520
21
8500
31
0
0
LINE
5
1A7
330
101
100
AcDbEntity
8
A-OPENING
100
AcDbLine
10
8350
20
8355
30
0
11
11100
21
8355
31
0
0
LINE
5
1A8
330
101
100
AcDbEntity
8
A-OPENING
100
AcDbLine
10
8350
20
8410
30
0
11
11100
21
8410
31
0
0
LINE
5
1A9
330
101
100
AcDbEntity
8
A-OPENING
100
AcDbLine
10
8350
20
8465
30
0
11
11100
21
8465
31
0
0
LINE
5
1AA
330
101
100
AcDbEntity
8
A-OPENING
100
AcDbLine
10
8350
20
8320
30
0
11
8350
21
8500
31
0
0
LINE
5
1AB
330
101
100
AcDbEntity
8
A-OPENING
100
AcDbLine
10
11100
20
8320
30
0
11
11100
21
8500
31
0
0
LINE
5
1AC
330
101
100
AcDbEntity
8
A-OPENING
100
AcDbLine
10
35
20
1050
30
0
11
35
21
3450
31
0
0
LINE
5
1AD
330
101
100
AcDbEntity
8
A-OPENING
100
AcDbLine
10
90
20
1050
30
0
11
90
21
3450
31
0
0
LINE
5
1AE
330
101
100
AcDbEntity
8
A-OPENING
100
AcDbLine
10
145
20
1050
30
0
11
145
21
3450
31
0
0
LINE
5
1AF
330
101
100
AcDbEntity
8
A-OPENING
100
AcDbLine
10
0
20
1050
30
0
11
180
21
1050
31
0
0
LINE
5
1B0
330
101
100
AcDbEntity
8
A-OPENING
100
AcDbLine
10
0
20
3450
30
0
11
180
21
3450
31
0
0
LINE
5
1B1
330
101
100
AcDbEntity
8
A-OPENING
100
AcDbLine
10
35
20
5400
30
0
11
35
21
7700
31
0
0
LINE
5
1B2
330
101
100
AcDbEntity
8
A-OPENING
100
AcDbLine
10
90
20
5400
30
0
11
90
21
7700
31
0
0
LINE
5
1B3
330
101
100
AcDbEntity
8
A-OPENING
100
AcDbLine
10
145
20
5400
30
0
11
145
21
7700
31
0
0
LINE
5
1B4
330
101
100
AcDbEntity
8
A-OPENING
100
AcDbLine
10
0
20
5400
30
0
11
180
21
5400
31
0
0
LINE
5
1B5
330
101
100
AcDbEntity
8
A-OPENING
100
AcDbLine
10
0
20
7700
30
0
11
180
21
7700
31
0
0
LINE
5
1B6
330
101
100
AcDbEntity
8
A-OPENING
100
AcDbLine
10
11855
20
650
30
0
11
11855
21
2850
31
0
0
LINE
5
1B7
330
101
100
AcDbEntity
8
A-OPENING
100
AcDbLine
10
11910
20
650
30
0
11
11910
21
2850
31
0
0
LINE
5
1B8
330
101
100
AcDbEntity
8
A-OPENING
100
AcDbLine
10
11965
20
650
30
0
11
11965
21
2850
31
0
0
LINE
5
1B9
330
101
100
AcDbEntity
8
A-OPENING
100
AcDbLine
10
11820
20
650
30
0
11
12000
21
650
31
0
0
LINE
5
1BA
330
101
100
AcDbEntity
8
A-OPENING
100
AcDbLine
10
11820
20
2850
30
0
11
12000
21
2850
31
0
0
LINE
5
1BB
330
101
100
AcDbEntity
8
A-OPENING
100
AcDbLine
10
11855
20
4850
30
0
11
11855
21
7350
31
0
0
LINE
5
1BC
330
101
100
AcDbEntity
8
A-OPENING
100
AcDbLine
10
11910
20
4850
30
0
11
11910
21
7350
31
0
0
LINE
5
1BD
330
101
100
AcDbEntity
8
A-OPENING
100
AcDbLine
10
11965
20
4850
30
0
11
11965
21
7350
31
0
0
LINE
5
1BE
330
101
100
AcDbEntity
8
A-OPENING
100
AcDbLine
10
11820
20
4850
30
0
11
12000
21
4850
31
0
0
LINE
5
1BF
330
101
100
AcDbEntity
8
A-OPENING
100
AcDbLine
10
11820
20
7350
30
0
11
12000
21
7350
31
0
0
LINE
5
1C0
330
101
100
AcDbEntity
8
A-OPENING
100
AcDbLine
10
7350
20
35
30
0
11
10100
21
35
31
0
0
LINE
5
1C1
330
101
100
AcDbEntity
8
A-OPENING
100
AcDbLine
10
7350
20
90
30
0
11
10100
21
90
31
0
0
LINE
5
1C2
330
101
100
AcDbEntity
8
A-OPENING
100
AcDbLine
10
7350
20
145
30
0
11
10100
21
145
31
0
0
LINE
5
1C3
330
101
100
AcDbEntity
8
A-OPENING
100
AcDbLine
10
7350
20
0
30
0
11
7350
21
180
31
0
0
LINE
5
1C4
330
101
100
AcDbEntity
8
A-OPENING
100
AcDbLine
10
10100
20
0
30
0
11
10100
21
180
31
0
0
LINE
5
1C5
330
101
100
AcDbEntity
8
A-OPENING
100
AcDbLine
10
1900
20
90
30
0
11
1900
21
1140
31
0
0
ARC
5
1C6
330
101
100
AcDbEntity
8
A-OPENING
100
AcDbCircle
10
1900
20
90
30
0
40
1050
210
0
220
0
230
1
100
AcDbArc
50
0
51
90
0
LINE
5
1C7
330
101
100
AcDbEntity
8
A-OPENING
100
AcDbLine
10
7510
20
3360
30
0
11
8510
21
3360
31
0
0
ARC
5
1C8
330
101
100
AcDbEntity
8
A-OPENING
100
AcDbCircle
10
7510
20
3360
30
0
40
1000
210
0
220
0
230
1
100
AcDbArc
50
0
51
90
0
LINE
5
1C9
330
101
100
AcDbEntity
8
A-OPENING
100
AcDbLine
10
9370
20
4180
30
0
11
9370
21
5180
31
0
0
ARC
5
1CA
330
101
100
AcDbEntity
8
A-OPENING
100
AcDbCircle
10
9370
20
4180
30
0
40
1000
210
0
220
0
230
1
100
AcDbArc
50
0
51
90
0
LINE
5
1CB
330
101
100
AcDbEntity
8
A-OPENING
100
AcDbLine
10
10940
20
6280
30
0
11
10940
21
7040
31
0
0
ARC
5
1CC
330
101
100
AcDbEntity
8
A-OPENING
100
AcDbCircle
10
10940
20
6280
30
0
40
760
210
0
220
0
230
1
100
AcDbArc
50
0
51
90
0
LINE
5
1CD
330
101
100
AcDbEntity
8
A-OPENING
100
AcDbLine
10
5120
20
4640
30
0
11
6920
21
4640
31
0
0
LINE
5
1CE
330
101
100
AcDbEntity
8
A-OPENING
100
AcDbLine
10
5120
20
4690
30
0
11
6920
21
4690
31
0
0
LINE
5
1CF
330
101
100
AcDbEntity
8
A-OPENING
100
AcDbLine
10
5120
20
4760
30
0
11
6920
21
4760
31
0
0
LINE
5
1D0
330
101
100
AcDbEntity
8
A-OPENING
100
AcDbLine
10
5120
20
4690
30
0
11
6020
21
4690
31
0
0
LINE
5
1D1
330
101
100
AcDbEntity
8
A-OPENING
100
AcDbLine
10
6020
20
4760
30
0
11
6920
21
4760
31
0
0
LWPOLYLINE
5
1D2
330
101
100
AcDbEntity
8
A-HATCH
100
AcDbPolyline
90
4
70
1
38
0
210
0
220
0
230
1
10
4660
20
4900
10
7280
20
4900
10
7280
20
8090
10
4660
20
8090
0
LINE
5
1D3
330
101
100
AcDbEntity
8
A-HATCH
100
AcDbLine
10
4680
20
5080
30
0
11
7260
21
5080
31
0
0
LINE
5
1D4
330
101
100
AcDbEntity
8
A-HATCH
100
AcDbLine
10
4680
20
5460
30
0
11
7260
21
5460
31
0
0
LINE
5
1D5
330
101
100
AcDbEntity
8
A-HATCH
100
AcDbLine
10
4680
20
5840
30
0
11
7260
21
5840
31
0
0
LINE
5
1D6
330
101
100
AcDbEntity
8
A-HATCH
100
AcDbLine
10
4680
20
6220
30
0
11
7260
21
6220
31
0
0
LINE
5
1D7
330
101
100
AcDbEntity
8
A-HATCH
100
AcDbLine
10
4680
20
6600
30
0
11
7260
21
6600
31
0
0
LINE
5
1D8
330
101
100
AcDbEntity
8
A-HATCH
100
AcDbLine
10
4680
20
6980
30
0
11
7260
21
6980
31
0
0
LINE
5
1D9
330
101
100
AcDbEntity
8
A-HATCH
100
AcDbLine
10
4680
20
7360
30
0
11
7260
21
7360
31
0
0
LINE
5
1DA
330
101
100
AcDbEntity
8
A-HATCH
100
AcDbLine
10
4680
20
7740
30
0
11
7260
21
7740
31
0
0
CIRCLE
5
1DB
330
101
100
AcDbEntity
8
A-LANDSCAPE
100
AcDbCircle
10
5900
20
7040
30
0
40
720
210
0
220
0
230
1
0
CIRCLE
5
1DC
330
101
100
AcDbEntity
8
A-LANDSCAPE
100
AcDbCircle
10
5900
20
7040
30
0
40
453.6
210
0
220
0
230
1
0
LINE
5
1DD
330
101
100
AcDbEntity
8
A-LANDSCAPE
100
AcDbLine
10
6044
20
7040
30
0
11
6512
21
7040
31
0
0
LINE
5
1DE
330
101
100
AcDbEntity
8
A-LANDSCAPE
100
AcDbLine
10
6010.3103998091
20
7132.5614157949
30
0
11
6368.8191991888
21
7433.3860171282
31
0
0
LINE
5
1DF
330
101
100
AcDbEntity
8
A-LANDSCAPE
100
AcDbLine
10
5925.005337584
20
7181.8123164338
30
0
11
6006.2726847322
21
7642.7023448435
31
0
0
LINE
5
1E0
330
101
100
AcDbEntity
8
A-LANDSCAPE
100
AcDbLine
10
5828
20
7164.707658145
30
0
11
5594
21
7570.0075471161
31
0
0
LINE
5
1E1
330
101
100
AcDbEntity
8
A-LANDSCAPE
100
AcDbLine
10
5764.6842626068
20
7089.2509006389
30
0
11
5324.908116079
21
7249.3163277153
31
0
0
LINE
5
1E2
330
101
100
AcDbEntity
8
A-LANDSCAPE
100
AcDbLine
10
5764.6842626068
20
6990.7490993611
30
0
11
5324.908116079
21
6830.6836722847
31
0
0
LINE
5
1E3
330
101
100
AcDbEntity
8
A-LANDSCAPE
100
AcDbLine
10
5828
20
6915.292341855
30
0
11
5594
21
6509.9924528839
31
0
0
LINE
5
1E4
330
101
100
AcDbEntity
8
A-LANDSCAPE
100
AcDbLine
10
5925.005337584
20
6898.1876835662
30
0
11
6006.2726847322
21
6437.2976551565
31
0
0
LINE
5
1E5
330
101
100
AcDbEntity
8
A-LANDSCAPE
100
AcDbLine
10
6010.3103998091
20
6947.4385842051
30
0
11
6368.8191991888
21
6646.6139828718
31
0
0
LWPOLYLINE
5
1E6
330
101
100
AcDbEntity
8
A-LANDSCAPE
100
AcDbPolyline
90
4
70
1
38
0
210
0
220
0
230
1
10
4720
20
4980
10
5220
20
4980
10
5220
20
6260
10
4720
20
6260
0
CIRCLE
5
1E7
330
101
100
AcDbEntity
8
A-LANDSCAPE
100
AcDbCircle
10
4970
20
5150
30
0
40
135
210
0
220
0
230
1
0
CIRCLE
5
1E8
330
101
100
AcDbEntity
8
A-LANDSCAPE
100
AcDbCircle
10
4970
20
5390
30
0
40
135
210
0
220
0
230
1
0
CIRCLE
5
1E9
330
101
100
AcDbEntity
8
A-LANDSCAPE
100
AcDbCircle
10
4970
20
5630
30
0
40
135
210
0
220
0
230
1
0
CIRCLE
5
1EA
330
101
100
AcDbEntity
8
A-LANDSCAPE
100
AcDbCircle
10
4970
20
5870
30
0
40
135
210
0
220
0
230
1
0
CIRCLE
5
1EB
330
101
100
AcDbEntity
8
A-LANDSCAPE
100
AcDbCircle
10
4970
20
6110
30
0
40
135
210
0
220
0
230
1
0
TEXT
5
1EC
330
101
100
AcDbEntity
8
A-ANNOTATION
100
AcDbText
10
5920
20
5360
30
0
40
165
1
COURTYARD
50
0
41
1
7
STANDARD
72
1
11
5920
21
5360
31
0
210
0
220
0
230
1
100
AcDbText
73
0
0
TEXT
5
1ED
330
101
100
AcDbEntity
8
A-HATCH
100
AcDbText
10
5920
20
5100
30
0
40
110
1
Open to sky
50
0
41
1
7
STANDARD
72
1
11
5920
21
5100
31
0
210
0
220
0
230
1
100
AcDbText
73
0
0
LWPOLYLINE
5
1EE
330
101
100
AcDbEntity
8
A-HATCH
100
AcDbPolyline
90
4
70
1
38
0
210
0
220
0
230
1
10
700
20
720
10
4170
20
720
10
4170
20
3570
10
700
20
3570
0
LWPOLYLINE
5
1EF
330
101
100
AcDbEntity
8
A-FURNITURE
100
AcDbPolyline
90
4
70
1
38
0
210
0
220
0
230
1
10
820
20
2010
10
3240
20
2010
10
3240
20
2910
10
820
20
2910
0
LWPOLYLINE
5
1F0
330
101
100
AcDbEntity
8
A-FURNITURE
100
AcDbPolyline
90
4
70
1
38
0
210
0
220
0
230
1
10
820
20
1040
10
1720
20
1040
10
1720
20
2910
10
820
20
2910
0
LWPOLYLINE
5
1F1
330
101
100
AcDbEntity
8
A-FURNITURE
100
AcDbPolyline
90
4
70
1
38
0
210
0
220
0
230
1
10
930
20
2120
10
3090
20
2120
10
3090
20
2790
10
930
20
2790
0
LINE
5
1F2
330
101
100
AcDbEntity
8
A-FURNITURE
100
AcDbLine
10
1600
20
2130
30
0
11
1600
21
2780
31
0
0
LINE
5
1F3
330
101
100
AcDbEntity
8
A-FURNITURE
100
AcDbLine
10
2300
20
2130
30
0
11
2300
21
2780
31
0
0
LWPOLYLINE
5
1F4
330
101
100
AcDbEntity
8
A-FURNITURE
100
AcDbPolyline
90
4
70
1
38
0
210
0
220
0
230
1
10
930
20
1160
10
1590
20
1160
10
1590
20
1990
10
930
20
1990
0
LWPOLYLINE
5
1F5
330
101
100
AcDbEntity
8
A-FURNITURE
100
AcDbPolyline
90
4
70
1
38
0
210
0
220
0
230
1
10
2140
20
1140
10
3490
20
1140
10
3490
20
1830
10
2140
20
1830
0
LWPOLYLINE
5
1F6
330
101
100
AcDbEntity
8
A-FURNITURE
100
AcDbPolyline
90
4
70
1
38
0
210
0
220
0
230
1
10
2240
20
1240
10
3390
20
1240
10
3390
20
1730
10
2240
20
1730
0
CIRCLE
5
1F7
330
101
100
AcDbEntity
8
A-FURNITURE
100
AcDbCircle
10
3070
20
1510
30
0
40
140
210
0
220
0
230
1
0
LWPOLYLINE
5
1F8
330
101
100
AcDbEntity
8
A-FURNITURE
100
AcDbPolyline
90
4
70
1
38
0
210
0
220
0
230
1
10
4270
20
900
10
4640
20
900
10
4640
20
3280
10
4270
20
3280
0
LWPOLYLINE
5
1F9
330
101
100
AcDbEntity
8
A-FURNITURE
100
AcDbPolyline
90
4
70
1
38
0
210
0
220
0
230
1
10
4320
20
1390
10
4540
20
1390
10
4540
20
2720
10
4320
20
2720
0
CIRCLE
5
1FA
330
101
100
AcDbEntity
8
A-FURNITURE
100
AcDbCircle
10
3510
20
2470
30
0
40
345
210
0
220
0
230
1
0
CIRCLE
5
1FB
330
101
100
AcDbEntity
8
A-FURNITURE
100
AcDbCircle
10
3510
20
2470
30
0
40
235
210
0
220
0
230
1
0
CIRCLE
5
1FC
330
101
100
AcDbEntity
8
A-LANDSCAPE
100
AcDbCircle
10
6740
20
770
30
0
40
325
210
0
220
0
230
1
0
CIRCLE
5
1FD
330
101
100
AcDbEntity
8
A-LANDSCAPE
100
AcDbCircle
10
6740
20
770
30
0
40
204.75
210
0
220
0
230
1
0
LINE
5
1FE
330
101
100
AcDbEntity
8
A-LANDSCAPE
100
AcDbLine
10
6805
20
770
30
0
11
7016.25
21
770
31
0
0
LINE
5
1FF
330
101
100
AcDbEntity
8
A-LANDSCAPE
100
AcDbLine
10
6789.7928888027
20
811.7811946296
30
0
11
6951.6197774116
21
947.5700771759
31
0
0
LINE
5
200
330
101
100
AcDbEntity
8
A-LANDSCAPE
100
AcDbLine
10
6751.2871315484
20
834.0125039458
30
0
11
6787.9703090805
21
1042.0531417696
31
0
0
LINE
5
201
330
101
100
AcDbEntity
8
A-LANDSCAPE
100
AcDbLine
10
6707.5
20
826.291651246
30
0
11
6601.875
21
1009.2395177955
31
0
0
LINE
5
202
330
101
100
AcDbEntity
8
A-LANDSCAPE
100
AcDbLine
10
6678.9199796489
20
792.2313093162
30
0
11
6480.4099135079
21
864.4830645937
31
0
0
LINE
5
203
330
101
100
AcDbEntity
8
A-LANDSCAPE
100
AcDbLine
10
6678.9199796489
20
747.7686906838
30
0
11
6480.4099135079
21
675.5169354063
31
0
0
LINE
5
204
330
101
100
AcDbEntity
8
A-LANDSCAPE
100
AcDbLine
10
6707.5
20
713.708348754
30
0
11
6601.875
21
530.7604822045
31
0
0
LINE
5
205
330
101
100
AcDbEntity
8
A-LANDSCAPE
100
AcDbLine
10
6751.2871315484
20
705.9874960542
30
0
11
6787.9703090805
21
497.9468582304
31
0
0
LINE
5
206
330
101
100
AcDbEntity
8
A-LANDSCAPE
100
AcDbLine
10
6789.7928888027
20
728.2188053704
30
0
11
6951.6197774116
21
592.4299228241
31
0
0
TEXT
5
207
330
101
100
AcDbEntity
8
A-ANNOTATION
100
AcDbText
10
5450
20
2150
30
0
40
220
1
LIVING / LOUNGE
50
0
41
1
7
STANDARD
72
1
11
5450
21
2150
31
0
210
0
220
0
230
1
100
AcDbText
73
0
0
TEXT
5
208
330
101
100
AcDbEntity
8
A-HATCH
100
AcDbText
10
5450
20
1810
30
0
40
145
1
38.4 m\U+00B2
50
0
41
1
7
STANDARD
72
1
11
5450
21
1810
31
0
210
0
220
0
230
1
100
AcDbText
73
0
0
LWPOLYLINE
5
209
330
101
100
AcDbEntity
8
A-FURNITURE
100
AcDbPolyline
90
4
70
1
38
0
210
0
220
0
230
1
10
240
20
7210
10
4230
20
7210
10
4230
20
8150
10
240
20
8150
0
LWPOLYLINE
5
20A
330
101
100
AcDbEntity
8
A-FURNITURE
100
AcDbPolyline
90
4
70
1
38
0
210
0
220
0
230
1
10
240
20
4790
10
1020
20
4790
10
1020
20
7210
10
240
20
7210
0
LINE
5
20B
330
101
100
AcDbEntity
8
A-FURNITURE
100
AcDbLine
10
900
20
7250
30
0
11
900
21
8110
31
0
0
LINE
5
20C
330
101
100
AcDbEntity
8
A-FURNITURE
100
AcDbLine
10
1580
20
7250
30
0
11
1580
21
8110
31
0
0
LINE
5
20D
330
101
100
AcDbEntity
8
A-FURNITURE
100
AcDbLine
10
2260
20
7250
30
0
11
2260
21
8110
31
0
0
LINE
5
20E
330
101
100
AcDbEntity
8
A-FURNITURE
100
AcDbLine
10
2940
20
7250
30
0
11
2940
21
8110
31
0
0
LINE
5
20F
330
101
100
AcDbEntity
8
A-FURNITURE
100
AcDbLine
10
3620
20
7250
30
0
11
3620
21
8110
31
0
0
LWPOLYLINE
5
210
330
101
100
AcDbEntity
8
A-FURNITURE
100
AcDbPolyline
90
4
70
1
38
0
210
0
220
0
230
1
10
1440
20
7390
10
2710
20
7390
10
2710
20
7950
10
1440
20
7950
0
LWPOLYLINE
5
211
330
101
100
AcDbEntity
8
A-FURNITURE
100
AcDbPolyline
90
4
70
1
38
0
210
0
220
0
230
1
10
1520
20
7470
10
2025
20
7470
10
2025
20
7870
10
1520
20
7870
0
LWPOLYLINE
5
212
330
101
100
AcDbEntity
8
A-FURNITURE
100
AcDbPolyline
90
4
70
1
38
0
210
0
220
0
230
1
10
2110
20
7470
10
2615
20
7470
10
2615
20
7870
10
2110
20
7870
0
CIRCLE
5
213
330
101
100
AcDbEntity
8
A-FURNITURE
100
AcDbCircle
10
2070
20
8030
30
0
40
65
210
0
220
0
230
1
0
LWPOLYLINE
5
214
330
101
100
AcDbEntity
8
A-FURNITURE
100
AcDbPolyline
90
4
70
1
38
0
210
0
220
0
230
1
10
3100
20
7370
10
4020
20
7370
10
4020
20
7990
10
3100
20
7990
0
CIRCLE
5
215
330
101
100
AcDbEntity
8
A-FURNITURE
100
AcDbCircle
10
3320
20
7510
30
0
40
130
210
0
220
0
230
1
0
CIRCLE
5
216
330
101
100
AcDbEntity
8
A-FURNITURE
100
AcDbCircle
10
3320
20
7850
30
0
40
130
210
0
220
0
230
1
0
CIRCLE
5
217
330
101
100
AcDbEntity
8
A-FURNITURE
100
AcDbCircle
10
3760
20
7510
30
0
40
130
210
0
220
0
230
1
0
CIRCLE
5
218
330
101
100
AcDbEntity
8
A-FURNITURE
100
AcDbCircle
10
3760
20
7850
30
0
40
130
210
0
220
0
230
1
0
LWPOLYLINE
5
219
330
101
100
AcDbEntity
8
A-FURNITURE
100
AcDbPolyline
90
4
70
1
38
0
210
0
220
0
230
1
10
360
20
4880
10
900
20
4880
10
900
20
6110
10
360
20
6110
0
LINE
5
21A
330
101
100
AcDbEntity
8
A-FURNITURE
100
AcDbLine
10
360
20
5500
30
0
11
900
21
5500
31
0
0
LINE
5
21B
330
101
100
AcDbEntity
8
A-FURNITURE
100
AcDbLine
10
810
20
5310
30
0
11
810
21
5440
31
0
0
LWPOLYLINE
5
21C
330
101
100
AcDbEntity
8
A-FURNITURE
100
AcDbPolyline
90
4
70
1
38
0
210
0
220
0
230
1
10
1980
20
5110
10
3770
20
5110
10
3770
20
6090
10
1980
20
6090
0
LWPOLYLINE
5
21D
330
101
100
AcDbEntity
8
A-FURNITURE
100
AcDbPolyline
90
4
70
1
38
0
210
0
220
0
230
1
10
2060
20
5190
10
3690
20
5190
10
3690
20
6010
10
2060
20
6010
0
LWPOLYLINE
5
21E
330
101
100
AcDbEntity
8
A-FURNITURE
100
AcDbPolyline
90
4
70
1
38
0
210
0
220
0
230
1
10
2230
20
4700
10
2770
20
4700
10
2770
20
5030
10
2230
20
5030
0
LWPOLYLINE
5
21F
330
101
100
AcDbEntity
8
A-FURNITURE
100
AcDbPolyline
90
4
70
1
38
0
210
0
220
0
230
1
10
2230
20
6150
10
2770
20
6150
10
2770
20
6480
10
2230
20
6480
0
LWPOLYLINE
5
220
330
101
100
AcDbEntity
8
A-FURNITURE
100
AcDbPolyline
90
4
70
1
38
0
210
0
220
0
230
1
10
3050
20
4700
10
3590
20
4700
10
3590
20
5030
10
3050
20
5030
0
LWPOLYLINE
5
221
330
101
100
AcDbEntity
8
A-FURNITURE
100
AcDbPolyline
90
4
70
1
38
0
210
0
220
0
230
1
10
3050
20
6150
10
3590
20
6150
10
3590
20
6480
10
3050
20
6480
0
LWPOLYLINE
5
222
330
101
100
AcDbEntity
8
A-FURNITURE
100
AcDbPolyline
90
4
70
1
38
0
210
0
220
0
230
1
10
1540
20
5350
10
1900
20
5350
10
1900
20
5870
10
1540
20
5870
0
LWPOLYLINE
5
223
330
101
100
AcDbEntity
8
A-FURNITURE
100
AcDbPolyline
90
4
70
1
38
0
210
0
220
0
230
1
10
3840
20
5350
10
4200
20
5350
10
4200
20
5870
10
3840
20
5870
0
TEXT
5
224
330
101
100
AcDbEntity
8
A-ANNOTATION
100
AcDbText
10
2450
20
6650
30
0
40
180
1
KITCHEN / DINING
50
0
41
1
7
STANDARD
72
1
11
2450
21
6650
31
0
210
0
220
0
230
1
100
AcDbText
73
0
0
LWPOLYLINE
5
225
330
101
100
AcDbEntity
8
A-FURNITURE
100
AcDbPolyline
90
4
70
1
38
0
210
0
220
0
230
1
10
7930
20
5430
10
9800
20
5430
10
9800
20
7880
10
7930
20
7880
0
LWPOLYLINE
5
226
330
101
100
AcDbEntity
8
A-FURNITURE
100
AcDbPolyline
90
4
70
1
38
0
210
0
220
0
230
1
10
8000
20
5530
10
9730
20
5530
10
9730
20
7730
10
8000
20
7730
0
LWPOLYLINE
5
227
330
101
100
AcDbEntity
8
A-FURNITURE
100
AcDbPolyline
90
4
70
1
38
0
210
0
220
0
230
1
10
8020
20
7150
10
8820
20
7150
10
8820
20
7720
10
8020
20
7720
0
LWPOLYLINE
5
228
330
101
100
AcDbEntity
8
A-FURNITURE
100
AcDbPolyline
90
4
70
1
38
0
210
0
220
0
230
1
10
8900
20
7150
10
9700
20
7150
10
9700
20
7720
10
8900
20
7720
0
LINE
5
229
330
101
100
AcDbEntity
8
A-FURNITURE
100
AcDbLine
10
8000
20
7010
30
0
11
9730
21
7010
31
0
0
LWPOLYLINE
5
22A
330
101
100
AcDbEntity
8
A-FURNITURE
100
AcDbPolyline
90
4
70
1
38
0
210
0
220
0
230
1
10
7730
20
7430
10
7920
20
7430
10
7920
20
7890
10
7730
20
7890
0
LWPOLYLINE
5
22B
330
101
100
AcDbEntity
8
A-FURNITURE
100
AcDbPolyline
90
4
70
1
38
0
210
0
220
0
230
1
10
9780
20
7430
10
9970
20
7430
10
9970
20
7890
10
9780
20
7890
0
LWPOLYLINE
5
22C
330
101
100
AcDbEntity
8
A-FURNITURE
100
AcDbPolyline
90
4
70
1
38
0
210
0
220
0
230
1
10
7780
20
4470
10
9840
20
4470
10
9840
20
4990
10
7780
20
4990
0
LINE
5
22D
330
101
100
AcDbEntity
8
A-FURNITURE
100
AcDbLine
10
8160
20
4490
30
0
11
8160
21
4960
31
0
0
LINE
5
22E
330
101
100
AcDbEntity
8
A-FURNITURE
100
AcDbLine
10
8560
20
4490
30
0
11
8560
21
4960
31
0
0
LINE
5
22F
330
101
100
AcDbEntity
8
A-FURNITURE
100
AcDbLine
10
8960
20
4490
30
0
11
8960
21
4960
31
0
0
LINE
5
230
330
101
100
AcDbEntity
8
A-FURNITURE
100
AcDbLine
10
9360
20
4490
30
0
11
9360
21
4960
31
0
0
LINE
5
231
330
101
100
AcDbEntity
8
A-FURNITURE
100
AcDbLine
10
9760
20
4490
30
0
11
9760
21
4960
31
0
0
TEXT
5
232
330
101
100
AcDbEntity
8
A-ANNOTATION
100
AcDbText
10
8770
20
5140
30
0
40
180
1
BEDROOM
50
0
41
1
7
STANDARD
72
1
11
8770
21
5140
31
0
210
0
220
0
230
1
100
AcDbText
73
0
0
LWPOLYLINE
5
233
330
101
100
AcDbEntity
8
A-FURNITURE
100
AcDbPolyline
90
4
70
1
38
0
210
0
220
0
230
1
10
10380
20
7260
10
11600
20
7260
10
11600
20
8110
10
10380
20
8110
0
LWPOLYLINE
5
234
330
101
100
AcDbEntity
8
A-FURNITURE
100
AcDbPolyline
90
4
70
1
38
0
210
0
220
0
230
1
10
10470
20
7350
10
11510
20
7350
10
11510
20
8010
10
10470
20
8010
0
ELLIPSE
5
235
330
101
100
AcDbEntity
8
A-FURNITURE
100
AcDbEllipse
10
10700
20
6760
30
0
11
0
21
345
31
0
210
0
220
0
230
1
40
0.7826086957
41
4.7123889804
42
10.9955742876
0
LWPOLYLINE
5
236
330
101
100
AcDbEntity
8
A-FURNITURE
100
AcDbPolyline
90
4
70
1
38
0
210
0
220
0
230
1
10
10420
20
6810
10
10980
20
6810
10
10980
20
7150
10
10420
20
7150
0
LWPOLYLINE
5
237
330
101
100
AcDbEntity
8
A-FURNITURE
100
AcDbPolyline
90
4
70
1
38
0
210
0
220
0
230
1
10
11250
20
6650
10
11700
20
6650
10
11700
20
7150
10
11250
20
7150
0
CIRCLE
5
238
330
101
100
AcDbEntity
8
A-FURNITURE
100
AcDbCircle
10
11475
20
6900
30
0
40
155
210
0
220
0
230
1
0
TEXT
5
239
330
101
100
AcDbEntity
8
A-ANNOTATION
100
AcDbText
10
11020
20
6460
30
0
40
135
1
BATH
50
0
41
1
7
STANDARD
72
1
11
11020
21
6460
31
0
210
0
220
0
230
1
100
AcDbText
73
0
0
LWPOLYLINE
5
23A
330
101
100
AcDbEntity
8
A-FURNITURE
100
AcDbPolyline
90
4
70
1
38
0
210
0
220
0
230
1
10
9260
20
880
10
11560
20
880
10
11560
20
1660
10
9260
20
1660
0
LWPOLYLINE
5
23B
330
101
100
AcDbEntity
8
A-FURNITURE
100
AcDbPolyline
90
4
70
1
38
0
210
0
220
0
230
1
10
9370
20
960
10
10570
20
960
10
10570
20
1450
10
9370
20
1450
0
LWPOLYLINE
5
23C
330
101
100
AcDbEntity
8
A-FURNITURE
100
AcDbPolyline
90
4
70
1
38
0
210
0
220
0
230
1
10
10770
20
1000
10
11320
20
1000
10
11320
20
1370
10
10770
20
1370
0
LINE
5
23D
330
101
100
AcDbEntity
8
A-FURNITURE
100
AcDbLine
10
10820
20
1180
30
0
11
11260
21
1180
31
0
0
LWPOLYLINE
5
23E
330
101
100
AcDbEntity
8
A-HATCH
100
AcDbPolyline
90
4
70
1
38
0
210
0
220
0
230
1
10
8350
20
2040
10
10820
20
2040
10
10820
20
3410
10
8350
20
3410
0
LWPOLYLINE
5
23F
330
101
100
AcDbEntity
8
A-FURNITURE
100
AcDbPolyline
90
4
70
1
38
0
210
0
220
0
230
1
10
8480
20
2230
10
10290
20
2230
10
10290
20
3110
10
8480
20
3110
0
LWPOLYLINE
5
240
330
101
100
AcDbEntity
8
A-FURNITURE
100
AcDbPolyline
90
4
70
1
38
0
210
0
220
0
230
1
10
8580
20
2320
10
9380
20
2320
10
9380
20
3000
10
8580
20
3000
0
LWPOLYLINE
5
241
330
101
100
AcDbEntity
8
A-FURNITURE
100
AcDbPolyline
90
4
70
1
38
0
210
0
220
0
230
1
10
9450
20
2320
10
10190
20
2320
10
10190
20
3000
10
9450
20
3000
0
CIRCLE
5
242
330
101
100
AcDbEntity
8
A-FURNITURE
100
AcDbCircle
10
10500
20
2060
30
0
40
230
210
0
220
0
230
1
0
LWPOLYLINE
5
243
330
101
100
AcDbEntity
8
A-FURNITURE
100
AcDbPolyline
90
4
70
1
38
0
210
0
220
0
230
1
10
7790
20
200
10
8520
20
200
10
8520
20
2690
10
7790
20
2690
0
TEXT
5
244
330
101
100
AcDbEntity
8
A-ANNOTATION
100
AcDbText
10
10000
20
3610
30
0
40
205
1
STUDIO
50
0
41
1
7
STANDARD
72
1
11
10000
21
3610
31
0
210
0
220
0
230
1
100
AcDbText
73
0
0
TEXT
5
245
330
101
100
AcDbEntity
8
A-HATCH
100
AcDbText
10
10000
20
3310
30
0
40
140
1
16.8 m\U+00B2
50
0
41
1
7
STANDARD
72
1
11
10000
21
3310
31
0
210
0
220
0
230
1
100
AcDbText
73
0
0
LINE
5
246
330
101
100
AcDbEntity
8
A-HATCH
100
AcDbLine
10
1720
20
-320
30
0
11
3130
21
-320
31
0
0
LINE
5
247
330
101
100
AcDbEntity
8
A-HATCH
100
AcDbLine
10
1720
20
-570
30
0
11
3130
21
-570
31
0
0
LINE
5
248
330
101
100
AcDbEntity
8
A-HATCH
100
AcDbLine
10
1720
20
-820
30
0
11
3130
21
-820
31
0
0
LINE
5
249
330
101
100
AcDbEntity
8
A-HATCH
100
AcDbLine
10
1720
20
-1070
30
0
11
3130
21
-1070
31
0
0
LINE
5
24A
330
101
100
AcDbEntity
8
A-HATCH
100
AcDbLine
10
1720
20
-70
30
0
11
1720
21
-900
31
0
0
LINE
5
24B
330
101
100
AcDbEntity
8
A-HATCH
100
AcDbLine
10
3130
20
-70
30
0
11
3130
21
-900
31
0
0
LWPOLYLINE
5
24C
330
101
100
AcDbEntity
8
A-HATCH
100
AcDbPolyline
90
4
70
1
38
0
210
0
220
0
230
1
10
7250
20
-1480
10
10300
20
-1480
10
10300
20
-230
10
7250
20
-230
0
LINE
5
24D
330
101
100
AcDbEntity
8
A-HATCH
100
AcDbLine
10
7270
20
-1310
30
0
11
10280
21
-1310
31
0
0
LINE
5
24E
330
101
100
AcDbEntity
8
A-HATCH
100
AcDbLine
10
7270
20
-1090
30
0
11
10280
21
-1090
31
0
0
LINE
5
24F
330
101
100
AcDbEntity
8
A-HATCH
100
AcDbLine
10
7270
20
-870
30
0
11
10280
21
-870
31
0
0
LINE
5
250
330
101
100
AcDbEntity
8
A-HATCH
100
AcDbLine
10
7270
20
-650
30
0
11
10280
21
-650
31
0
0
LINE
5
251
330
101
100
AcDbEntity
8
A-HATCH
100
AcDbLine
10
7270
20
-430
30
0
11
10280
21
-430
31
0
0
LINE
5
252
330
101
100
AcDbEntity
8
A-CENTER
100
AcDbLine
10
90
20
-560
30
0
11
90
21
9940
31
0
0
CIRCLE
5
253
330
101
100
AcDbEntity
8
A-CENTER
100
AcDbCircle
10
90
20
10060
30
0
40
150
210
0
220
0
230
1
0
TEXT
5
254
330
101
100
AcDbEntity
8
A-CENTER
100
AcDbText
10
90
20
10005
30
0
40
150
1
1
50
0
41
1
7
STANDARD
72
1
11
90
21
10005
31
0
210
0
220
0
230
1
100
AcDbText
73
0
0
LINE
5
255
330
101
100
AcDbEntity
8
A-CENTER
100
AcDbLine
10
4510
20
-560
30
0
11
4510
21
9940
31
0
0
CIRCLE
5
256
330
101
100
AcDbEntity
8
A-CENTER
100
AcDbCircle
10
4510
20
10060
30
0
40
150
210
0
220
0
230
1
0
TEXT
5
257
330
101
100
AcDbEntity
8
A-CENTER
100
AcDbText
10
4510
20
10005
30
0
40
150
1
2
50
0
41
1
7
STANDARD
72
1
11
4510
21
10005
31
0
210
0
220
0
230
1
100
AcDbText
73
0
0
LINE
5
258
330
101
100
AcDbEntity
8
A-CENTER
100
AcDbLine
10
7510
20
-560
30
0
11
7510
21
9940
31
0
0
CIRCLE
5
259
330
101
100
AcDbEntity
8
A-CENTER
100
AcDbCircle
10
7510
20
10060
30
0
40
150
210
0
220
0
230
1
0
TEXT
5
25A
330
101
100
AcDbEntity
8
A-CENTER
100
AcDbText
10
7510
20
10005
30
0
40
150
1
3
50
0
41
1
7
STANDARD
72
1
11
7510
21
10005
31
0
210
0
220
0
230
1
100
AcDbText
73
0
0
LINE
5
25B
330
101
100
AcDbEntity
8
A-CENTER
100
AcDbLine
10
11910
20
-560
30
0
11
11910
21
9940
31
0
0
CIRCLE
5
25C
330
101
100
AcDbEntity
8
A-CENTER
100
AcDbCircle
10
11910
20
10060
30
0
40
150
210
0
220
0
230
1
0
TEXT
5
25D
330
101
100
AcDbEntity
8
A-CENTER
100
AcDbText
10
11910
20
10005
30
0
40
150
1
4
50
0
41
1
7
STANDARD
72
1
11
11910
21
10005
31
0
210
0
220
0
230
1
100
AcDbText
73
0
0
LINE
5
25E
330
101
100
AcDbEntity
8
A-CENTER
100
AcDbLine
10
-720
20
90
30
0
11
12450
21
90
31
0
0
CIRCLE
5
25F
330
101
100
AcDbEntity
8
A-CENTER
100
AcDbCircle
10
-930
20
90
30
0
40
150
210
0
220
0
230
1
0
TEXT
5
260
330
101
100
AcDbEntity
8
A-CENTER
100
AcDbText
10
-930
20
35
30
0
40
150
1
A
50
0
41
1
7
STANDARD
72
1
11
-930
21
35
31
0
210
0
220
0
230
1
100
AcDbText
73
0
0
LINE
5
261
330
101
100
AcDbEntity
8
A-CENTER
100
AcDbLine
10
-720
20
4180
30
0
11
12450
21
4180
31
0
0
CIRCLE
5
262
330
101
100
AcDbEntity
8
A-CENTER
100
AcDbCircle
10
-930
20
4180
30
0
40
150
210
0
220
0
230
1
0
TEXT
5
263
330
101
100
AcDbEntity
8
A-CENTER
100
AcDbText
10
-930
20
4125
30
0
40
150
1
B
50
0
41
1
7
STANDARD
72
1
11
-930
21
4125
31
0
210
0
220
0
230
1
100
AcDbText
73
0
0
LINE
5
264
330
101
100
AcDbEntity
8
A-CENTER
100
AcDbLine
10
-720
20
8410
30
0
11
12450
21
8410
31
0
0
CIRCLE
5
265
330
101
100
AcDbEntity
8
A-CENTER
100
AcDbCircle
10
-930
20
8410
30
0
40
150
210
0
220
0
230
1
0
TEXT
5
266
330
101
100
AcDbEntity
8
A-CENTER
100
AcDbText
10
-930
20
8355
30
0
40
150
1
C
50
0
41
1
7
STANDARD
72
1
11
-930
21
8355
31
0
210
0
220
0
230
1
100
AcDbText
73
0
0
DIMENSION
5
267
330
101
100
AcDbEntity
8
A-DIMENSION
100
AcDbDimension
2
*D1
10
4420
20
9050
30
0
11
2210
21
9120
31
0
70
33
1
<>
3
STANDARD
100
AcDbAlignedDimension
13
0
23
8500
33
0
14
4420
24
8500
34
0
0
DIMENSION
5
268
330
101
100
AcDbEntity
8
A-DIMENSION
100
AcDbDimension
2
*D2
10
7600
20
9050
30
0
11
6010
21
9120
31
0
70
33
1
<>
3
STANDARD
100
AcDbAlignedDimension
13
4420
23
8500
33
0
14
7600
24
8500
34
0
0
DIMENSION
5
269
330
101
100
AcDbEntity
8
A-DIMENSION
100
AcDbDimension
2
*D3
10
12000
20
9050
30
0
11
9800
21
9120
31
0
70
33
1
<>
3
STANDARD
100
AcDbAlignedDimension
13
7600
23
8500
33
0
14
12000
24
8500
34
0
0
DIMENSION
5
26A
330
101
100
AcDbEntity
8
A-DIMENSION
100
AcDbDimension
2
*D4
10
12000
20
9610
30
0
11
6000
21
9690
31
0
70
33
1
<>
3
STANDARD
100
AcDbAlignedDimension
13
0
23
8500
33
0
14
12000
24
8500
34
0
0
DIMENSION
5
26B
330
101
100
AcDbEntity
8
A-DIMENSION
100
AcDbDimension
2
*D5
10
12000
20
-1190
30
0
11
6000
21
-1107.5
31
0
70
33
1
<>
3
STANDARD
100
AcDbAlignedDimension
13
0
23
0
33
0
14
12000
24
0
34
0
0
DIMENSION
5
26C
330
101
100
AcDbEntity
8
A-DIMENSION
100
AcDbDimension
2
*D6
10
12720
20
8500
30
0
11
12640
21
4250
31
0
70
33
1
<>
3
STANDARD
100
AcDbAlignedDimension
13
12000
23
0
33
0
14
12000
24
8500
34
0
0
DIMENSION
5
26D
330
101
100
AcDbEntity
8
A-DIMENSION
100
AcDbDimension
2
*D7
10
620
20
4180
30
0
11
550
21
2090
31
0
70
33
1
<>
3
STANDARD
100
AcDbAlignedDimension
13
0
23
0
33
0
14
0
24
4180
34
0
0
DIMENSION
5
26E
330
101
100
AcDbEntity
8
A-DIMENSION
100
AcDbDimension
2
*D8
10
620
20
8500
30
0
11
550
21
6340
31
0
70
33
1
<>
3
STANDARD
100
AcDbAlignedDimension
13
0
23
4180
33
0
14
0
24
8500
34
0
0
LINE
5
26F
330
101
100
AcDbEntity
8
A-ANNOTATION
100
AcDbLine
10
13500
20
7000
30
0
11
13500
21
8180
31
0
0
LWPOLYLINE
5
270
330
101
100
AcDbEntity
8
A-ANNOTATION
100
AcDbPolyline
90
3
70
1
38
0
210
0
220
0
230
1
10
13320
20
7600
10
13500
20
8180
10
13680
20
7600
0
TEXT
5
271
330
101
100
AcDbEntity
8
A-ANNOTATION
100
AcDbText
10
13500
20
8480
30
0
40
270
1
N
50
0
41
1
7
STANDARD
72
1
11
13500
21
8480
31
0
210
0
220
0
230
1
100
AcDbText
73
0
0
TEXT
5
272
330
101
100
AcDbEntity
8
A-ANNOTATION
100
AcDbText
10
0
20
-2100
30
0
40
270
1
GROUND FLOOR PLAN
50
0
41
1
7
STANDARD
72
0
210
0
220
0
230
1
100
AcDbText
73
0
0
TEXT
5
273
330
101
100
AcDbEntity
8
A-HATCH
100
AcDbText
10
0
20
-2410
30
0
40
135
1
COURTYARD HOUSE  /  DESIGN STUDY
50
0
41
1
7
STANDARD
72
0
210
0
220
0
230
1
100
AcDbText
73
0
0
TEXT
5
274
330
101
100
AcDbEntity
8
A-ANNOTATION
100
AcDbText
10
12000
20
-2090
30
0
40
330
1
A\U+2013101
50
0
41
1
7
STANDARD
72
2
11
12000
21
-2090
31
0
210
0
220
0
230
1
100
AcDbText
73
0
0
TEXT
5
275
330
101
100
AcDbEntity
8
A-HATCH
100
AcDbText
10
12000
20
-2390
30
0
40
130
1
Dimensions in millimeters
50
0
41
1
7
STANDARD
72
2
11
12000
21
-2390
31
0
210
0
220
0
230
1
100
AcDbText
73
0
0
LWPOLYLINE
5
276
330
101
100
AcDbEntity
8
A-ANNOTATION
100
AcDbPolyline
90
4
70
1
38
0
210
0
220
0
230
1
10
8300
20
-2040
10
8950
20
-2040
10
8950
20
-1945
10
8300
20
-1945
0
HATCH
5
277
330
101
100
AcDbEntity
8
A-HATCH
100
AcDbHatch
10
0
20
0
30
0
210
0
220
0
230
1
2
SOLID
70
1
71
0
91
1
92
2
72
0
73
1
93
4
10
8300
20
-2040
10
8950
20
-2040
10
8950
20
-1945
10
8300
20
-1945
97
0
75
0
76
1
98
0
0
LWPOLYLINE
5
278
330
101
100
AcDbEntity
8
A-ANNOTATION
100
AcDbPolyline
90
4
70
1
38
0
210
0
220
0
230
1
10
8950
20
-2040
10
9600
20
-2040
10
9600
20
-1945
10
8950
20
-1945
0
LWPOLYLINE
5
279
330
101
100
AcDbEntity
8
A-ANNOTATION
100
AcDbPolyline
90
4
70
1
38
0
210
0
220
0
230
1
10
9600
20
-2040
10
10250
20
-2040
10
10250
20
-1945
10
9600
20
-1945
0
HATCH
5
27A
330
101
100
AcDbEntity
8
A-HATCH
100
AcDbHatch
10
0
20
0
30
0
210
0
220
0
230
1
2
SOLID
70
1
71
0
91
1
92
2
72
0
73
1
93
4
10
9600
20
-2040
10
10250
20
-2040
10
10250
20
-1945
10
9600
20
-1945
97
0
75
0
76
1
98
0
0
LWPOLYLINE
5
27B
330
101
100
AcDbEntity
8
A-ANNOTATION
100
AcDbPolyline
90
4
70
1
38
0
210
0
220
0
230
1
10
10250
20
-2040
10
10900
20
-2040
10
10900
20
-1945
10
10250
20
-1945
0
TEXT
5
27C
330
101
100
AcDbEntity
8
A-HATCH
100
AcDbText
10
8300
20
-2280
30
0
40
120
1
0        1        2 m
50
0
41
1
7
STANDARD
72
0
210
0
220
0
230
1
100
AcDbText
73
0
0
ENDSEC
0
EOF
