0
SECTION
2
HEADER
9
$ACADVER
1
AC1015
9
$ACADMAINTVER
70
6
9
$DWGCODEPAGE
3
ANSI_1252
9
$INSUNITS
70
4
9
$MEASUREMENT
70
1
9
$LUNITS
70
2
9
$LUPREC
70
4
9
$HANDSEED
5
FFFFFFF
9
$INSBASE
10
0
20
0
30
0
0
ENDSEC
0
SECTION
2
TABLES
0
TABLE
2
LTYPE
5
104
100
AcDbSymbolTable
70
3
0
LTYPE
5
105
100
AcDbSymbolTableRecord
100
AcDbLinetypeTableRecord
2
Continuous
70
0
3
Solid line
72
65
73
0
40
0
0
LTYPE
5
106
100
AcDbSymbolTableRecord
100
AcDbLinetypeTableRecord
2
Dashed
70
0
3
Dashed __ __
72
65
73
2
40
18
49
12
74
0
49
-6
74
0
0
LTYPE
5
107
100
AcDbSymbolTableRecord
100
AcDbLinetypeTableRecord
2
Center
70
0
3
Center ____ _
72
65
73
4
40
39
49
24
74
0
49
-6
74
0
49
3
74
0
49
-6
74
0
0
ENDTAB
0
TABLE
2
LAYER
5
108
100
AcDbSymbolTable
70
8
0
LAYER
5
109
100
AcDbSymbolTableRecord
100
AcDbLayerTableRecord
2
0
70
0
62
7
420
14476525
6
Continuous
370
25
0
LAYER
5
10A
100
AcDbSymbolTableRecord
100
AcDbLayerTableRecord
2
A-WALL
70
0
62
7
420
14608109
6
Continuous
370
35
0
LAYER
5
10B
100
AcDbSymbolTableRecord
100
AcDbLayerTableRecord
2
A-OPENING
70
0
62
7
420
5884121
6
Continuous
370
20
0
LAYER
5
10C
100
AcDbSymbolTableRecord
100
AcDbLayerTableRecord
2
A-FURNITURE
70
0
62
7
420
10794439
6
Continuous
370
18
0
LAYER
5
10D
100
AcDbSymbolTableRecord
100
AcDbLayerTableRecord
2
A-DIMENSION
70
0
62
7
420
6669494
6
Continuous
370
15
0
LAYER
5
10E
100
AcDbSymbolTableRecord
100
AcDbLayerTableRecord
2
A-ANNOTATION
70
0
62
7
420
12766165
6
Continuous
370
18
0
LAYER
5
10F
100
AcDbSymbolTableRecord
100
AcDbLayerTableRecord
2
A-HATCH
70
0
62
7
420
6847889
6
Continuous
370
13
0
LAYER
5
110
100
AcDbSymbolTableRecord
100
AcDbLayerTableRecord
2
A-CENTER
70
0
62
7
420
13015654
6
Center
370
13
0
ENDTAB
0
TABLE
2
STYLE
5
111
100
AcDbSymbolTable
70
1
0
STYLE
5
112
100
AcDbSymbolTableRecord
100
AcDbTextStyleTableRecord
2
STANDARD
70
0
40
0
41
1
50
0
71
0
42
2.5
3
txt
4

0
ENDTAB
0
TABLE
2
DIMSTYLE
5
113
100
AcDbSymbolTable
100
AcDbDimStyleTable
70
1
0
DIMSTYLE
105
114
100
AcDbSymbolTableRecord
100
AcDbDimStyleTableRecord
2
STANDARD
70
0
40
1
41
2
140
2
147
1
271
2
0
ENDTAB
0
TABLE
2
APPID
5
115
100
AcDbSymbolTable
70
1
0
APPID
5
116
100
AcDbSymbolTableRecord
100
AcDbRegAppTableRecord
2
ACAD
70
0
0
ENDTAB
0
TABLE
2
BLOCK_RECORD
5
117
100
AcDbSymbolTable
70
3
0
BLOCK_RECORD
5
101
100
AcDbSymbolTableRecord
100
AcDbBlockTableRecord
2
*Model_Space
70
0
280
1
281
0
0
BLOCK_RECORD
5
102
100
AcDbSymbolTableRecord
100
AcDbBlockTableRecord
2
*Paper_Space
70
0
280
1
281
0
0
BLOCK_RECORD
5
103
100
AcDbSymbolTableRecord
100
AcDbBlockTableRecord
2
*D1
70
0
280
1
281
0
0
ENDTAB
0
ENDSEC
0
SECTION
2
BLOCKS
0
BLOCK
5
118
330
101
100
AcDbEntity
8
0
100
AcDbBlockBegin
2
*Model_Space
70
0
10
0
20
0
30
0
3
*Model_Space
1

0
ENDBLK
5
119
330
101
100
AcDbEntity
8
0
100
AcDbBlockEnd
0
BLOCK
5
11A
330
102
100
AcDbEntity
8
0
100
AcDbBlockBegin
2
*Paper_Space
70
0
10
0
20
0
30
0
3
*Paper_Space
1

0
ENDBLK
5
11B
330
102
100
AcDbEntity
8
0
100
AcDbBlockEnd
0
BLOCK
5
11C
330
103
100
AcDbEntity
8
0
100
AcDbBlockBegin
2
*D1
70
1
10
0
20
0
30
0
3
*D1
1

0
LINE
5
11D
330
103
100
AcDbEntity
8
A-WALL
100
AcDbLine
10
0
20
-0.6
30
0
11
0
21
-11.6
31
0
0
LINE
5
11E
330
103
100
AcDbEntity
8
A-WALL
100
AcDbLine
10
50
20
-0.6
30
0
11
50
21
-11.6
31
0
0
LINE
5
11F
330
103
100
AcDbEntity
8
A-WALL
100
AcDbLine
10
0
20
-10
30
0
11
50
21
-10
31
0
0
LINE
5
120
330
103
100
AcDbEntity
8
A-WALL
100
AcDbLine
10
0
20
-10
30
0
11
2
21
-9.44
31
0
0
LINE
5
121
330
103
100
AcDbEntity
8
A-WALL
100
AcDbLine
10
0
20
-10
30
0
11
2
21
-10.56
31
0
0
LINE
5
122
330
103
100
AcDbEntity
8
A-WALL
100
AcDbLine
10
50
20
-10
30
0
11
48
21
-9.44
31
0
0
LINE
5
123
330
103
100
AcDbEntity
8
A-WALL
100
AcDbLine
10
50
20
-10
30
0
11
48
21
-10.56
31
0
0
TEXT
5
124
330
103
100
AcDbEntity
8
A-WALL
100
AcDbText
10
25
20
-9
30
0
40
2
1
50.00
50
0
41
1
7
STANDARD
72
1
11
25
21
-9
31
0
210
0
220
0
230
1
100
AcDbText
73
0
0
ENDBLK
5
125
330
103
100
AcDbEntity
8
0
100
AcDbBlockEnd
0
ENDSEC
0
SECTION
2
ENTITIES
0
LINE
5
126
330
101
100
AcDbEntity
8
A-WALL
100
AcDbLine
10
0
20
0
30
0
11
20
21
30
31
4
0
LWPOLYLINE
5
127
330
101
100
AcDbEntity
8
A-WALL
100
AcDbPolyline
90
4
70
1
38
0
210
0
220
0
230
1
10
0
20
0
42
0.3
10
10
20
0
10
10
20
10
10
0
20
10
0
CIRCLE
5
128
330
101
100
AcDbEntity
8
A-WALL
100
AcDbCircle
10
30
20
40
30
0
40
8
210
0
220
0
230
1
0
ARC
5
129
330
101
100
AcDbEntity
8
A-WALL
100
AcDbCircle
10
50
20
40
30
0
40
9
210
0
220
0
230
1
100
AcDbArc
50
11.4591559026
51
120.3211369775
0
ELLIPSE
5
12A
330
101
100
AcDbEntity
8
A-WALL
100
AcDbEllipse
10
60
20
40
30
0
11
11.4640378695
21
3.5462424799
31
0
210
0
220
0
230
1
40
0.4166666667
41
0
42
6.2831853072
0
SPLINE
5
12B
330
101
100
AcDbEntity
8
A-WALL
100
AcDbSpline
70
0
71
3
72
8
73
4
74
0
42
1e-7
43
1e-7
44
1e-10
40
0
40
0
40
0
40
0
40
1
40
1
40
1
40
1
10
0
20
0
30
0
10
5
20
10
30
0
10
10
20
-5
30
0
10
20
20
0
30
0
0
SPLINE
5
12C
330
101
100
AcDbEntity
8
A-WALL
100
AcDbSpline
70
4
71
2
72
6
73
3
74
0
42
1e-7
43
1e-7
44
1e-10
40
0
40
0
40
0
40
1
40
1
40
1
41
1
41
0.7071067812
41
1
10
1
20
0
30
0
10
1
20
1
30
0
10
0
20
1
30
0
0
TEXT
5
12D
330
101
100
AcDbEntity
8
A-WALL
100
AcDbText
10
5
20
5
30
0
40
2
1
Kestrel \U+00B7 \U+017B\U+00F3\U+0142\U+0107 \U+03A9 \U+00B1 \U+2300
50
22.9183118052
41
1
7
STANDARD
72
0
210
0
220
0
230
1
100
AcDbText
73
0
0
HATCH
5
12E
330
101
100
AcDbEntity
8
A-WALL
100
AcDbHatch
10
0
20
0
30
0
210
0
220
0
230
1
2
ANSI31
70
0
71
0
91
1
92
2
72
0
73
1
93
4
10
0
20
0
10
10
20
0
10
10
20
10
10
0
20
10
97
0
75
0
76
1
52
17.1887338539
41
1
77
0
78
2
53
17.1887338539
43
0
44
0
45
-0.5910404133
46
1.9106729783
79
0
53
107.1887338539
43
0
44
0
45
-1.9106729783
46
-0.5910404133
79
0
98
0
0
DIMENSION
5
12F
330
101
100
AcDbEntity
8
A-WALL
100
AcDbDimension
2
*D1
10
50
20
-10
30
0
11
25
21
-9
31
0
70
33
1
<>
3
STANDARD
100
AcDbAlignedDimension
13
0
23
0
33
0
14
50
24
0
34
0
0
3DFACE
5
130
330
101
100
AcDbEntity
8
A-WALL
100
AcDbFace
10
70
20
0
30
0
11
70
21
10
31
0
12
80
22
10
32
0
13
80
23
10
33
0
70
0
0
3DFACE
5
131
330
101
100
AcDbEntity
8
A-WALL
100
AcDbFace
10
80
20
10
30
0
11
80
21
0
31
0
12
70
22
0
32
0
13
70
23
0
33
0
70
0
0
3DFACE
5
132
330
101
100
AcDbEntity
8
A-WALL
100
AcDbFace
10
70
20
10
30
10
11
70
21
0
31
10
12
80
22
0
32
10
13
80
23
0
33
10
70
0
0
3DFACE
5
133
330
101
100
AcDbEntity
8
A-WALL
100
AcDbFace
10
80
20
0
30
10
11
80
21
10
31
10
12
70
22
10
32
10
13
70
23
10
33
10
70
0
0
3DFACE
5
134
330
101
100
AcDbEntity
8
A-WALL
100
AcDbFace
10
70
20
0
30
10
11
70
21
0
31
0
12
80
22
0
32
0
13
80
23
0
33
0
70
0
0
3DFACE
5
135
330
101
100
AcDbEntity
8
A-WALL
100
AcDbFace
10
80
20
0
30
0
11
80
21
0
31
10
12
70
22
0
32
10
13
70
23
0
33
10
70
0
0
3DFACE
5
136
330
101
100
AcDbEntity
8
A-WALL
100
AcDbFace
10
80
20
0
30
10
11
80
21
0
31
0
12
80
22
10
32
0
13
80
23
10
33
0
70
0
0
3DFACE
5
137
330
101
100
AcDbEntity
8
A-WALL
100
AcDbFace
10
80
20
10
30
0
11
80
21
10
31
10
12
80
22
0
32
10
13
80
23
0
33
10
70
0
0
3DFACE
5
138
330
101
100
AcDbEntity
8
A-WALL
100
AcDbFace
10
80
20
10
30
10
11
80
21
10
31
0
12
70
22
10
32
0
13
70
23
10
33
0
70
0
0
3DFACE
5
139
330
101
100
AcDbEntity
8
A-WALL
100
AcDbFace
10
70
20
10
30
0
11
70
21
10
31
10
12
80
22
10
32
10
13
80
23
10
33
10
70
0
0
3DFACE
5
13A
330
101
100
AcDbEntity
8
A-WALL
100
AcDbFace
10
70
20
10
30
10
11
70
21
10
31
0
12
70
22
0
32
0
13
70
23
0
33
0
70
0
0
3DFACE
5
13B
330
101
100
AcDbEntity
8
A-WALL
100
AcDbFace
10
70
20
0
30
0
11
70
21
0
31
10
12
70
22
10
32
10
13
70
23
10
33
10
70
0
0
ENDSEC
0
EOF
